<?xml version="1.0" encoding="iso-8859-1"?>
<!-- Generator: Adobe Illustrator 19.0.0, SVG Export Plug-In . SVG Version: 6.00 Build 0)  -->
<svg version="1.1" id="Layer_1" xmlns="http://www.w3.org/2000/svg" xmlns:xlink="http://www.w3.org/1999/xlink" x="0px" y="0px"
	 viewBox="0 0 496.4 496.4" style="enable-background:new 0 0 496.4 496.4;" xml:space="preserve">
<path style="fill:#FF9100;" d="M181,489.8c-8.8,8.8-22.4,8.8-31.2,0L6.6,346.6c-8.8-8.8-8.8-22.4,0-31.2L309.8,12.2
	c8.8-8.8,22.4-8.8,31.2,0l143.2,143.2c8.8,8.8,8.8,22.4,0,31.2L181,489.8z"/>
<path style="fill:#FFC200;" d="M186.6,484.2c-8.8,8.8-22.4,8.8-31.2,0L12.2,341.8c-8.8-8.8-8.8-22.4,0-31.2l303.2-304
	c8.8-8.8,22.4-8.8,31.2,0l143.2,143.2c8.8,8.8,8.8,22.4,0,31.2L186.6,484.2z"/>
<path style="fill:#FFB000;" d="M346.6,6.6l143.2,143.2c8.8,8.8,8.8,22.4,0,31.2L186.6,484.2c-8.8,8.8-22.4,8.8-31.2,0"/>
<path style="fill:#FF9700;" d="M489.8,149.8c8.8,8.8,8.8,22.4,0,31.2L186.6,484.2c-8.8,8.8-22.4,8.8-31.2,0"/>
<path style="fill:#FFDA00;" d="M12.2,341.8c-8.8-8.8-8.8-22.4,0-31.2l303.2-304c8.8-8.8,22.4-8.8,31.2,0"/>
<g>
	<ellipse style="fill:#FF9100;" cx="77.8" cy="125.8" rx="3.2" ry="56.8"/>
	<ellipse style="fill:#FF9100;" cx="77.8" cy="125.8" rx="56.8" ry="3.2"/>
</g>
<g>
	
		<ellipse transform="matrix(0.7065 -0.7077 0.7077 0.7065 6.7941 121.5156)" style="fill:#FFC200;" cx="149.904" cy="52.566" rx="30.4" ry="1.6"/>
	
		<ellipse transform="matrix(0.7084 0.7059 -0.7059 0.7084 80.9744 -89.9596)" style="fill:#FFC200;" cx="149.35" cy="53.01" rx="30.402" ry="1.6"/>
</g>
<g>
	
		<ellipse transform="matrix(0.7065 -0.7077 0.7077 0.7065 -117.0745 207.9012)" style="fill:#FFDA00;" cx="192.121" cy="245.103" rx="30.4" ry="1.6"/>
	
		<ellipse transform="matrix(0.7084 0.7059 -0.7059 0.7084 228.9156 -63.9787)" style="fill:#FFDA00;" cx="191.88" cy="245.028" rx="30.402" ry="1.6"/>
	<path style="fill:#FFDA00;" d="M358.6,155.4c0,31.2-1.6,56.8-3.2,56.8s-3.2-25.6-3.2-56.8s1.6-56.8,3.2-56.8
		C357,98.6,358.6,124.2,358.6,155.4z"/>
	<ellipse style="fill:#FFDA00;" cx="355.4" cy="155.4" rx="56.8" ry="3.2"/>
</g>
<g>
</g>
<g>
</g>
<g>
</g>
<g>
</g>
<g>
</g>
<g>
</g>
<g>
</g>
<g>
</g>
<g>
</g>
<g>
</g>
<g>
</g>
<g>
</g>
<g>
</g>
<g>
</g>
<g>
</g>
</svg>
